<?xml version="1.0" encoding="UTF-8"?>
<svg version="1.1" xmlns="http://www.w3.org/2000/svg" width="500" height="500">
<path d="M0 0 C165 0 330 0 500 0 C500 165 500 330 500 500 C335 500 170 500 0 500 C0 335 0 170 0 0 Z " fill="#9886E5" transform="translate(0,0)"/>
<path d="M0 0 C0.64050293 0.17160645 1.28100586 0.34321289 1.94091797 0.52001953 C15.69479507 4.23306862 28.09365021 9.62219166 39 19 C39.96164062 19.76441406 40.92328125 20.52882813 41.9140625 21.31640625 C62.13973109 38.21556814 70.38051324 66.8238217 73 92 C74.99686166 118.47020949 70.7863391 145.01368751 62 170 C61.71817871 170.82693359 61.43635742 171.65386719 61.14599609 172.50585938 C49.34295834 206.83959923 29.58548587 242.28430567 -4.17578125 258.7734375 C-10.08766253 261.34097653 -14.98397803 262.38913474 -21.375 262.375 C-22.12869873 262.37338867 -22.88239746 262.37177734 -23.65893555 262.37011719 C-30.69912553 262.21436415 -34.88981079 260.6191067 -40.375 256 C-43.10535121 252.63956774 -44.25737235 250.0160646 -44.1953125 245.671875 C-44.18564453 244.47304688 -44.18564453 244.47304688 -44.17578125 243.25 C-44.15902344 242.425 -44.14226562 241.6 -44.125 240.75 C-44.11597656 239.90953125 -44.10695313 239.0690625 -44.09765625 238.203125 C-44.07415817 236.13529396 -44.03828908 234.06761005 -44 232 C-44.34289062 232.62003906 -44.68578125 233.24007812 -45.0390625 233.87890625 C-58.18109128 256.11677269 -80.90402608 275.1777935 -106 282 C-118.12797382 284.12891953 -129.70990119 284.52185027 -140.2109375 277.52734375 C-146.81044116 272.33851466 -150.75301988 265.30060504 -152 257 C-152.614695 248.19331198 -151.5515489 240.42922405 -149 232 C-149.40089844 232.66644531 -149.80179688 233.33289063 -150.21484375 234.01953125 C-154.62689536 241.17285755 -159.51913761 247.63512755 -165 254 C-165.68707031 254.79921875 -166.37414062 255.5984375 -167.08203125 256.421875 C-176.74298562 267.39127031 -186.74706094 277.92876443 -199 286 C-199.83402344 286.59039062 -200.66804688 287.18078125 -201.52734375 287.7890625 C-219.73075304 300.21665321 -242.19411533 305.8638403 -264.078125 302.53125 C-274.19236332 299.85956441 -282.81216027 294.0167116 -288.1796875 285.0234375 C-298.55433653 265.41004992 -295.78088819 237.67586456 -290 217 C-289.76925781 216.1740332 -289.53851563 215.34806641 -289.30078125 214.49707031 C-278.05517282 175.62832053 -255.72457233 140.81896391 -230 110 C-229.22269531 109.03578125 -228.44539063 108.0715625 -227.64453125 107.078125 C-220.7362465 98.63773972 -213.12552019 90.90970549 -205.4375 83.1875 C-204.90697021 82.65179382 -204.37644043 82.11608765 -203.82983398 81.56414795 C-197.65421478 75.3411083 -191.37673024 69.48476245 -184.50927734 64.0144043 C-182.23012406 62.1847396 -180.0358049 60.29693246 -177.85546875 58.3515625 C-134.06763095 19.70804566 -59.84306251 -16.95213034 0 0 Z " fill="#FEFCF7" transform="translate(363,94)"/>
<path d="M0 0 C5.51838122 3.16133985 8.68969257 7.99381881 11.125 13.75 C12.92467507 24.54805039 11.89164488 33.22073196 5.8125 42.4375 C1.1559071 47.0940929 -3.55709683 48.6082556 -10 48.875 C-15.56083755 48.80129229 -19.10967449 47.16082234 -23.25 43.5 C-29.72747661 36.56102379 -30.66953525 28.89592092 -30.5 19.65625 C-29.94399528 12.63669037 -27.32766436 7.46482738 -22.25 2.5 C-15.50254068 -2.34973639 -7.68966552 -3.28718526 0 0 Z " fill="#9987E5" transform="translate(376.25,173.5)"/>
<path d="M0 0 C5.45727307 4.7566772 8.58498266 10.60723325 9.46875 17.83203125 C9.54091068 27.0234983 8.94881476 34.54593976 2.5078125 41.64453125 C-2.81309026 46.42782984 -8.26181745 47.57096883 -15.2109375 47.44921875 C-21.0325814 46.51155902 -24.51218641 42.60527256 -28.375 38.4375 C-31.9516992 33.0724512 -32.3646215 28.47168108 -32.375 22.1875 C-32.41173828 21.03411133 -32.41173828 21.03411133 -32.44921875 19.85742188 C-32.48402125 12.98392887 -30.52965188 7.9319822 -26.03515625 2.72265625 C-25.05869141 1.90087891 -25.05869141 1.90087891 -24.0625 1.0625 C-23.41410156 0.49660156 -22.76570313 -0.06929687 -22.09765625 -0.65234375 C-15.5488525 -4.85967577 -6.51914211 -3.74983174 0 0 Z " fill="#9886E5" transform="translate(316,175)"/>
</svg>
